<mxfile host="app.diagrams.net" modified="2021-09-20T08:57:10.306Z" agent="5.0 (Windows NT 10.0; Win64; x64) AppleWebKit/537.36 (KHTML, like Gecko) Chrome/93.0.4577.82 Safari/537.36" etag="bTGrlapKE8OXROKdn7OA" version="15.2.9" type="github">
  <diagram id="b0W2mxdTYVFUYDYXt2Cf" name="Page-1">
    <mxGraphModel dx="716" dy="377" grid="1" gridSize="10" guides="1" tooltips="1" connect="1" arrows="1" fold="1" page="1" pageScale="1" pageWidth="850" pageHeight="1100" math="0" shadow="0">
      <root>
        <mxCell id="0" />
        <mxCell id="1" parent="0" />
        <mxCell id="8Km_VkLluEKSbxvVSFWY-1" value="1" style="ellipse;whiteSpace=wrap;html=1;fontStyle=1;fontSize=15;sketch=1;" vertex="1" parent="1">
          <mxGeometry x="310" y="90" width="30" height="30" as="geometry" />
        </mxCell>
        <mxCell id="8Km_VkLluEKSbxvVSFWY-2" value="2" style="ellipse;whiteSpace=wrap;html=1;fontStyle=1;fontSize=15;sketch=1;" vertex="1" parent="1">
          <mxGeometry x="220" y="150" width="30" height="30" as="geometry" />
        </mxCell>
        <mxCell id="8Km_VkLluEKSbxvVSFWY-3" value="3" style="ellipse;whiteSpace=wrap;html=1;fontStyle=1;fontSize=15;sketch=1;" vertex="1" parent="1">
          <mxGeometry x="360" y="150" width="30" height="30" as="geometry" />
        </mxCell>
        <mxCell id="8Km_VkLluEKSbxvVSFWY-6" value="" style="endArrow=classic;html=1;fontSize=15;sketch=1;" edge="1" parent="1" source="8Km_VkLluEKSbxvVSFWY-22" target="8Km_VkLluEKSbxvVSFWY-1">
          <mxGeometry width="50" height="50" relative="1" as="geometry">
            <mxPoint x="400" y="310" as="sourcePoint" />
            <mxPoint x="450" y="260" as="targetPoint" />
          </mxGeometry>
        </mxCell>
        <mxCell id="8Km_VkLluEKSbxvVSFWY-7" value="" style="endArrow=classic;html=1;fontSize=15;sketch=1;" edge="1" parent="1" source="8Km_VkLluEKSbxvVSFWY-1" target="8Km_VkLluEKSbxvVSFWY-3">
          <mxGeometry width="50" height="50" relative="1" as="geometry">
            <mxPoint x="310" y="220" as="sourcePoint" />
            <mxPoint x="370" y="220" as="targetPoint" />
          </mxGeometry>
        </mxCell>
        <mxCell id="8Km_VkLluEKSbxvVSFWY-9" value="4" style="ellipse;whiteSpace=wrap;html=1;fontStyle=1;fontSize=15;sketch=1;" vertex="1" parent="1">
          <mxGeometry x="410" y="90.00000000000003" width="30" height="30" as="geometry" />
        </mxCell>
        <mxCell id="8Km_VkLluEKSbxvVSFWY-10" value="" style="endArrow=classic;html=1;fontSize=15;sketch=1;" edge="1" parent="1" target="8Km_VkLluEKSbxvVSFWY-9" source="8Km_VkLluEKSbxvVSFWY-3">
          <mxGeometry width="50" height="50" relative="1" as="geometry">
            <mxPoint x="247.55791592464743" y="240.00364713186715" as="sourcePoint" />
            <mxPoint x="330" y="291.98" as="targetPoint" />
          </mxGeometry>
        </mxCell>
        <mxCell id="8Km_VkLluEKSbxvVSFWY-11" value="" style="endArrow=classic;html=1;fontSize=15;sketch=1;" edge="1" parent="1" source="8Km_VkLluEKSbxvVSFWY-9" target="8Km_VkLluEKSbxvVSFWY-15">
          <mxGeometry width="50" height="50" relative="1" as="geometry">
            <mxPoint x="257.75383985632993" y="248.1336652604018" as="sourcePoint" />
            <mxPoint x="270" y="290" as="targetPoint" />
          </mxGeometry>
        </mxCell>
        <mxCell id="8Km_VkLluEKSbxvVSFWY-14" value="5" style="ellipse;whiteSpace=wrap;html=1;fontStyle=1;fontSize=15;sketch=1;" vertex="1" parent="1">
          <mxGeometry x="310" y="230" width="30" height="30" as="geometry" />
        </mxCell>
        <mxCell id="8Km_VkLluEKSbxvVSFWY-15" value="6" style="ellipse;whiteSpace=wrap;html=1;fontStyle=1;fontSize=15;sketch=1;" vertex="1" parent="1">
          <mxGeometry x="480" y="90" width="30" height="30" as="geometry" />
        </mxCell>
        <mxCell id="8Km_VkLluEKSbxvVSFWY-16" value="" style="endArrow=classic;html=1;fontSize=15;sketch=1;" edge="1" parent="1" source="8Km_VkLluEKSbxvVSFWY-22" target="8Km_VkLluEKSbxvVSFWY-2">
          <mxGeometry width="50" height="50" relative="1" as="geometry">
            <mxPoint x="160" y="350" as="sourcePoint" />
            <mxPoint x="210" y="300" as="targetPoint" />
          </mxGeometry>
        </mxCell>
        <mxCell id="8Km_VkLluEKSbxvVSFWY-17" value="" style="endArrow=classic;html=1;fontSize=15;sketch=1;" edge="1" parent="1" source="8Km_VkLluEKSbxvVSFWY-14" target="8Km_VkLluEKSbxvVSFWY-18">
          <mxGeometry width="50" height="50" relative="1" as="geometry">
            <mxPoint x="70" y="260" as="sourcePoint" />
            <mxPoint x="130" y="260" as="targetPoint" />
          </mxGeometry>
        </mxCell>
        <mxCell id="8Km_VkLluEKSbxvVSFWY-18" value="7" style="ellipse;whiteSpace=wrap;html=1;fontStyle=1;fontSize=15;sketch=1;" vertex="1" parent="1">
          <mxGeometry x="480" y="230" width="30" height="30" as="geometry" />
        </mxCell>
        <mxCell id="8Km_VkLluEKSbxvVSFWY-19" value="" style="endArrow=classic;html=1;fontSize=15;sketch=1;" edge="1" parent="1" source="8Km_VkLluEKSbxvVSFWY-18" target="8Km_VkLluEKSbxvVSFWY-15">
          <mxGeometry width="50" height="50" relative="1" as="geometry">
            <mxPoint x="7.557915924647432" y="280.0036471318672" as="sourcePoint" />
            <mxPoint x="270" y="270" as="targetPoint" />
          </mxGeometry>
        </mxCell>
        <mxCell id="8Km_VkLluEKSbxvVSFWY-22" value="0" style="ellipse;whiteSpace=wrap;html=1;fontStyle=1;fontSize=15;sketch=1;" vertex="1" parent="1">
          <mxGeometry x="220" y="90" width="30" height="30" as="geometry" />
        </mxCell>
        <mxCell id="8Km_VkLluEKSbxvVSFWY-23" value="" style="endArrow=classic;html=1;fontSize=15;sketch=1;" edge="1" parent="1" source="8Km_VkLluEKSbxvVSFWY-2" target="8Km_VkLluEKSbxvVSFWY-14">
          <mxGeometry width="50" height="50" relative="1" as="geometry">
            <mxPoint x="255.6066017177983" y="125.6066017177983" as="sourcePoint" />
            <mxPoint x="270" y="210" as="targetPoint" />
          </mxGeometry>
        </mxCell>
        <mxCell id="8Km_VkLluEKSbxvVSFWY-24" value="" style="endArrow=classic;html=1;fontSize=15;sketch=1;" edge="1" parent="1" source="8Km_VkLluEKSbxvVSFWY-2" target="8Km_VkLluEKSbxvVSFWY-3">
          <mxGeometry width="50" height="50" relative="1" as="geometry">
            <mxPoint x="308.56504654393893" y="189.57019022305417" as="sourcePoint" />
            <mxPoint x="321.36196562447117" y="240.44786249788376" as="targetPoint" />
          </mxGeometry>
        </mxCell>
      </root>
    </mxGraphModel>
  </diagram>
</mxfile>
